<svg width="680" viewBox="0 0 680 160" xmlns="http://www.w3.org/2000/svg" style="background:#ffffff;font-family:Arial,sans-serif">
<defs>
  <marker id="arrow" viewBox="0 0 10 10" refX="8" refY="5" markerWidth="6" markerHeight="6" orient="auto-start-reverse">
    <path d="M2 1L8 5L2 9" fill="none" stroke="#888780" stroke-width="1.5" stroke-linecap="round" stroke-linejoin="round"/>
  </marker>
</defs>

<!-- 1. 대본 업로드 -->
<rect x="20" y="30" width="100" height="100" rx="12" fill="#E1F5EE" stroke="#0F6E56" stroke-width="0.5"/>
<text x="70" y="72" text-anchor="middle" font-size="28">📄</text>
<text x="70" y="100" text-anchor="middle" font-size="12" fill="#085041" dominant-baseline="central">대본 업로드</text>
<text x="70" y="116" text-anchor="middle" font-size="11" fill="#0F6E56" dominant-baseline="central">.txt / 직접 입력</text>

<line x1="122" y1="80" x2="148" y2="80" stroke="#888780" stroke-width="1.2" marker-end="url(#arrow)"/>

<!-- 2. 캐릭터 선택 -->
<rect x="151" y="30" width="100" height="100" rx="12" fill="#E1F5EE" stroke="#0F6E56" stroke-width="0.5"/>
<text x="201" y="72" text-anchor="middle" font-size="28">🎭</text>
<text x="201" y="100" text-anchor="middle" font-size="12" fill="#085041" dominant-baseline="central">캐릭터 선택</text>
<text x="201" y="116" text-anchor="middle" font-size="11" fill="#0F6E56" dominant-baseline="central">역할 배분</text>

<line x1="253" y1="80" x2="279" y2="80" stroke="#888780" stroke-width="1.2" marker-end="url(#arrow)"/>

<!-- 3. 대본 연습 -->
<rect x="282" y="30" width="100" height="100" rx="12" fill="#E1F5EE" stroke="#0F6E56" stroke-width="0.5"/>
<text x="332" y="72" text-anchor="middle" font-size="28">🤖</text>
<text x="332" y="100" text-anchor="middle" font-size="12" fill="#085041" dominant-baseline="central">대본 연습</text>
<text x="332" y="116" text-anchor="middle" font-size="11" fill="#0F6E56" dominant-baseline="central">로봇과 대화</text>

<line x1="384" y1="80" x2="410" y2="80" stroke="#888780" stroke-width="1.2" marker-end="url(#arrow)"/>

<!-- 4. 발음 평가 -->
<rect x="413" y="30" width="100" height="100" rx="12" fill="#E1F5EE" stroke="#0F6E56" stroke-width="0.5"/>
<text x="463" y="72" text-anchor="middle" font-size="28">🎙️</text>
<text x="463" y="100" text-anchor="middle" font-size="12" fill="#085041" dominant-baseline="central">발음 평가</text>
<text x="463" y="116" text-anchor="middle" font-size="11" fill="#0F6E56" dominant-baseline="central">Azure STT</text>

<line x1="515" y1="80" x2="541" y2="80" stroke="#888780" stroke-width="1.2" marker-end="url(#arrow)"/>

<!-- 5. 기록 확인 -->
<rect x="544" y="30" width="100" height="100" rx="12" fill="#E1F5EE" stroke="#0F6E56" stroke-width="0.5"/>
<text x="594" y="72" text-anchor="middle" font-size="28">📊</text>
<text x="594" y="100" text-anchor="middle" font-size="12" fill="#085041" dominant-baseline="central">기록 확인</text>
<text x="594" y="116" text-anchor="middle" font-size="11" fill="#0F6E56" dominant-baseline="central">점수 · 히스토리</text>
</svg>
